<?xml version="1.0" standalone="no"?>
<!DOCTYPE svg PUBLIC "-//W3C//DTD SVG 20010904//EN"
 "http://www.w3.org/TR/2001/REC-SVG-20010904/DTD/svg10.dtd">
<svg version="1.0" xmlns="http://www.w3.org/2000/svg"
 width="640.000000pt" height="253.000000pt" viewBox="0 0 640.000000 253.000000"
 preserveAspectRatio="xMidYMid meet">

<g transform="translate(0.000000,253.000000) scale(0.100000,-0.100000)"
fill="#69443c" stroke="none">
<path d="M4108 2228 c-9 -24 4 -38 52 -63 26 -13 50 -30 52 -37 14 -37 -29
-51 -70 -22 -21 14 -22 14 -22 -5 0 -11 -8 -25 -18 -30 -26 -14 -54 8 -78 60
l-19 43 -6 -29 c-4 -17 -7 -41 -7 -55 l0 -25 9 27 10 27 31 -34 c34 -39 62
-44 80 -15 10 16 20 18 48 14 71 -11 76 47 7 82 -52 26 -69 45 -56 61 7 8 8
13 1 13 -5 0 -12 -6 -14 -12z"/>
<path d="M4145 2230 c3 -5 13 -10 21 -10 8 0 12 5 9 10 -3 6 -13 10 -21 10 -8
0 -12 -4 -9 -10z"/>
<path d="M3895 2150 c16 -56 48 -120 60 -120 7 0 18 6 24 14 9 11 7 12 -13 9
-21 -4 -26 1 -41 49 -18 54 -44 97 -30 48z"/>
<path d="M3690 2089 c0 -4 11 -27 25 -50 14 -24 25 -56 25 -72 0 -27 0 -27
-29 -13 -15 8 -42 31 -59 50 -17 20 -34 36 -37 36 -3 0 -5 -27 -5 -61 0 -34
-4 -59 -10 -57 -5 2 -27 27 -50 57 -22 30 -40 49 -40 43 0 -7 16 -32 35 -57
19 -25 39 -54 45 -63 15 -26 30 3 30 61 0 26 3 47 6 47 4 0 26 -18 50 -40 69
-64 101 -47 69 35 -15 41 -54 99 -55 84z"/>
<path d="M3361 1988 c22 -57 36 -79 24 -38 -12 41 -34 90 -39 90 -3 0 4 -24
15 -52z"/>
<path d="M3307 2010 c3 -14 14 -43 24 -65 11 -22 16 -29 13 -15 -3 14 -15 43
-25 65 -10 22 -16 29 -12 15z"/>
<path d="M3443 1974 c-18 -8 -16 -85 3 -112 24 -35 51 -28 65 17 19 63 -19
115 -68 95z m57 -30 c12 -30 4 -68 -17 -86 -12 -10 -18 -9 -29 7 -8 10 -14 33
-14 50 0 55 43 75 60 29z"/>
<path d="M3101 1938 c0 -13 4 -32 9 -43 7 -14 8 -9 4 18 -7 41 6 49 38 20 10
-9 18 -11 18 -5 0 13 -32 32 -54 32 -10 0 -16 -8 -15 -22z"/>
<path d="M3256 1904 c-9 -8 -16 -25 -15 -37 1 -20 2 -19 12 5 21 53 67 38 67
-22 0 -57 -53 -81 -63 -28 -4 21 -4 21 -6 2 0 -11 8 -29 20 -40 21 -19 21 -18
40 5 23 28 25 79 3 109 -18 26 -37 28 -58 6z"/>
<path d="M3390 1918 c0 -17 33 -98 40 -98 5 0 0 21 -12 48 -20 46 -28 60 -28
50z"/>
<path d="M3356 1880 c11 -42 24 -73 29 -68 3 3 -4 25 -15 49 -11 24 -17 33
-14 19z"/>
<path d="M3170 1860 c-24 -18 -26 -18 -39 -2 -12 15 -12 15 -6 -6 4 -15 2 -24
-9 -28 -23 -9 -20 -21 5 -20 16 1 26 -9 36 -34 12 -32 11 -15 -2 35 -4 15 3
25 25 40 28 19 39 35 23 35 -5 0 -19 -9 -33 -20z"/>
<path d="M2880 1812 c0 -10 7 -41 15 -68 24 -81 21 -82 -60 -19 -32 25 -61 43
-63 40 -3 -2 1 -32 8 -65 12 -55 11 -63 -4 -78 -24 -24 -47 -6 -73 59 -32 80
-84 105 -95 45 -7 -33 0 -33 12 -1 5 14 13 25 18 25 19 0 44 -40 49 -79 11
-79 -21 -121 -50 -66 l-13 25 -22 -45 c-22 -46 -45 -57 -72 -32 -12 10 -12 9
-1 -5 29 -38 91 -6 91 46 0 19 1 19 16 -2 23 -33 53 -29 61 8 6 34 9 36 29 15
18 -17 64 -20 64 -4 0 5 5 7 10 4 13 -8 12 10 -4 73 -8 28 -11 52 -7 52 3 0
22 -13 41 -28 38 -32 73 -52 89 -52 5 0 1 29 -10 68 -10 37 -17 72 -14 79 2 7
0 15 -5 18 -6 4 -10 -2 -10 -13z"/>
<path d="M2612 1665 c0 -16 2 -22 5 -12 2 9 2 23 0 30 -3 6 -5 -1 -5 -18z"/>
<path d="M2493 1629 c3 -23 10 -46 16 -52 8 -8 8 -1 1 24 -14 47 -13 52 11 46
16 -4 18 -3 8 9 -6 8 -18 14 -27 14 -11 0 -13 -9 -9 -41z"/>
<path d="M2231 1533 c-1 -23 -2 -47 -4 -55 -2 -7 1 -3 7 9 9 21 10 20 41 -13
37 -39 45 -41 76 -16 16 14 20 24 14 38 -7 17 -8 17 -14 -6 -14 -53 -68 -29
-102 45 l-18 40 0 -42z"/>
<path d="M2141 1503 c28 -76 43 -93 64 -72 14 14 14 16 -7 15 -19 -1 -26 8
-43 57 -11 31 -23 57 -27 57 -4 0 2 -26 13 -57z"/>
<path d="M3234 1480 c12 -33 22 -56 24 -50 5 14 -28 110 -37 110 -5 0 1 -27
13 -60z"/>
<path d="M2068 1499 c-32 -18 -19 -119 18 -133 9 -3 22 -2 29 4 20 17 28 77
13 108 -15 30 -34 37 -60 21z m39 -7 c31 -19 21 -112 -11 -112 -32 0 -50 82
-24 108 14 14 19 14 35 4z"/>
<path d="M1970 1462 c0 -37 -41 -117 -60 -117 -9 0 -18 15 -24 40 -12 58 -16
68 -22 63 -10 -10 9 -90 26 -111 18 -21 19 -21 39 -3 11 10 28 38 37 63 18 47
25 46 42 -4 9 -26 8 -39 -3 -60 -8 -16 -15 -47 -15 -70 0 -51 27 -123 46 -123
22 0 26 40 10 129 -8 47 -13 88 -10 93 3 4 1 8 -4 8 -5 0 -17 27 -27 60 -19
64 -35 78 -35 32z m67 -226 c4 -50 2 -76 -5 -76 -23 0 -40 95 -26 148 11 41
25 8 31 -72z"/>
<path d="M3127 1399 c-10 -6 -23 -22 -28 -37 l-10 -26 -26 32 c-20 26 -28 30
-39 21 -8 -6 -14 -20 -14 -30 0 -26 -16 -24 -23 3 -4 12 -9 19 -13 15 -4 -3 3
-34 15 -67 24 -66 18 -100 -19 -100 -22 0 -42 28 -60 83 -6 21 -23 45 -36 54
-36 23 -54 3 -52 -56 l1 -46 4 45 c6 60 16 68 48 36 23 -23 26 -33 23 -83 -2
-46 -7 -59 -21 -61 -12 -2 -22 7 -33 30 -14 32 -14 12 1 -24 10 -26 -19 -33
-66 -18 -34 12 -39 17 -34 34 15 45 17 87 5 101 -18 21 -26 19 -49 -14 l-21
-29 20 -47 c11 -26 20 -57 20 -70 0 -13 5 -27 11 -31 8 -4 9 3 4 26 -8 36 -15
35 70 14 13 -4 33 -3 42 1 10 5 25 9 33 9 8 1 22 16 30 34 16 33 16 33 35 13
23 -27 37 -26 61 2 15 17 19 37 19 92 0 85 20 95 47 25 9 -25 20 -54 25 -65 5
-14 9 -2 11 40 4 66 14 85 47 85 19 0 26 -9 41 -52 9 -29 18 -55 20 -57 5 -6
34 20 34 31 0 6 -6 5 -14 -2 -12 -9 -17 -5 -26 29 -6 22 -20 47 -33 56 -25 18
-26 18 -50 4z m-381 -115 c8 -30 -6 -80 -21 -76 -18 4 -28 53 -16 78 14 31 29
30 37 -2z"/>
<path d="M4035 1400 c-11 -5 -35 -9 -54 -9 -18 -1 -56 -8 -85 -17 -129 -42
-173 -59 -198 -76 -14 -10 -30 -18 -35 -18 -5 0 -22 -13 -38 -30 -16 -16 -34
-30 -41 -30 -18 0 -24 -13 -14 -29 6 -11 18 -6 52 21 60 49 144 91 222 114 36
10 66 22 66 26 0 5 9 8 21 8 11 0 18 -4 15 -8 -3 -5 16 -3 42 4 47 12 389 13
422 1 8 -4 29 -8 45 -11 94 -17 137 -27 199 -45 38 -11 72 -19 74 -16 3 3 11
0 19 -6 7 -7 37 -17 66 -25 83 -20 157 -49 263 -105 54 -28 115 -60 135 -70
19 -9 59 -36 89 -58 30 -23 58 -41 63 -41 13 0 185 -132 262 -202 105 -95 196
-189 255 -263 38 -48 55 -63 61 -53 5 8 0 22 -15 38 -13 14 -27 35 -31 48 -3
12 -13 22 -21 22 -8 0 -14 6 -14 14 0 8 -13 24 -29 36 -17 11 -33 29 -36 40
-4 11 -11 18 -16 15 -5 -4 -12 2 -16 12 -7 19 -48 60 -104 103 -18 14 -54 44
-79 68 -26 23 -51 42 -56 42 -5 0 -15 9 -22 20 -6 11 -30 29 -52 40 -23 12
-43 27 -47 35 -3 8 -11 15 -18 15 -7 0 -56 31 -110 69 -53 38 -103 67 -110 65
-7 -3 -20 5 -29 18 -9 12 -16 19 -16 14 0 -5 -8 -2 -19 8 -10 9 -44 26 -77 37
-32 11 -71 27 -86 35 -15 8 -36 14 -46 14 -11 0 -25 6 -31 14 -7 8 -28 17 -49
21 -43 7 -129 34 -155 47 -11 5 -21 7 -23 5 -3 -2 -33 2 -67 10 -34 9 -75 16
-92 17 -16 2 -46 6 -65 9 -56 11 -310 15 -310 5 0 -5 -9 -4 -19 2 -22 11 -20
11 -46 0z"/>
<path d="M1465 1326 c24 -65 35 -88 35 -73 0 13 -43 123 -52 132 -5 6 2 -21
17 -59z"/>
<path d="M1556 1344 c-3 -9 -6 -23 -5 -32 0 -10 5 -5 11 11 5 15 14 25 19 21
15 -9 10 -22 -23 -60 -18 -21 -26 -35 -18 -32 9 3 22 -6 32 -24 21 -34 51 -36
72 -6 25 35 19 42 -8 11 -24 -27 -24 -28 -45 -9 -25 23 -26 39 -5 71 17 26 11
65 -11 65 -7 0 -16 -7 -19 -16z"/>
<path d="M3285 1321 c-3 -5 -1 -12 5 -16 5 -3 10 1 10 9 0 18 -6 21 -15 7z"/>
<path d="M1261 1290 c14 -31 19 -36 19 -24 0 6 -7 19 -16 30 -14 18 -14 18 -3
-6z"/>
<path d="M1326 1284 c-9 -8 -16 -27 -16 -42 -1 -26 -1 -26 -15 -8 -20 26 -19
23 9 -54 l25 -65 -6 70 c-8 109 27 136 78 59 10 -16 19 -25 19 -20 0 16 -51
76 -65 76 -7 0 -21 -7 -29 -16z"/>
<path d="M1432 1290 c3 -8 14 -41 24 -72 10 -32 21 -58 25 -58 10 0 -30 121
-44 135 -7 7 -8 5 -5 -5z"/>
<path d="M1680 1271 c0 -6 4 -11 9 -11 22 0 41 -34 41 -73 0 -32 3 -38 12 -29
17 17 -9 90 -39 110 -15 9 -23 10 -23 3z"/>
<path d="M1220 1233 c0 -6 6 -16 14 -22 8 -7 21 -32 30 -57 13 -38 13 -46 1
-50 -20 -8 -51 11 -81 51 -14 19 -30 35 -35 35 -5 0 -9 -27 -9 -60 0 -33 -4
-60 -8 -60 -5 0 -26 25 -47 55 -37 54 -45 63 -45 47 0 -14 82 -117 94 -117 6
0 13 24 16 58 l5 59 30 -32 c40 -42 84 -65 98 -51 15 15 -16 112 -43 136 -11
10 -20 13 -20 8z"/>
<path d="M1506 1220 c3 -14 11 -32 16 -40 6 -10 7 -7 2 10 -3 14 -11 32 -16
40 -6 10 -7 7 -2 -10z"/>
<path d="M2584 1215 c-13 -20 -15 -38 -10 -79 10 -85 -36 -103 -69 -28 -39 90
-58 111 -89 99 -12 -5 -16 -19 -14 -59 l1 -53 6 50 c6 47 10 52 39 47 34 -7
44 -162 11 -162 -5 0 -18 15 -29 33 -23 38 -27 29 -5 -13 9 -17 21 -30 28 -30
19 0 37 21 37 42 0 22 13 23 30 3 16 -19 44 -19 61 1 7 9 21 13 34 10 16 -4
25 1 35 19 7 14 17 25 21 25 10 0 37 -85 45 -141 11 -79 -31 -75 -67 6 -10 22
-19 34 -19 27 0 -39 59 -108 85 -99 22 9 19 61 -10 163 -39 137 -46 155 -55
149 -5 -3 -11 -1 -15 5 -11 18 -34 11 -51 -15z m53 -7 c35 -39 37 -64 9 -93
-32 -32 -44 -32 -56 1 -13 33 -13 70 0 95 14 25 22 24 47 -3z"/>
<path d="M1420 1207 c0 -14 24 -57 32 -57 5 0 1 12 -9 28 -22 35 -23 36 -23
29z"/>
<path d="M2261 1199 c-1 -3 6 -27 15 -53 15 -44 15 -48 -1 -60 -16 -12 -16
-13 6 -12 13 1 27 6 32 13 4 6 21 14 37 18 17 4 30 11 30 16 0 12 -11 11 -40
-6 -31 -18 -40 -18 -40 -2 -1 13 -38 96 -39 86z"/>
<path d="M990 1175 c0 -3 7 -35 16 -71 9 -36 14 -67 11 -71 -4 -3 -23 7 -43
23 -75 59 -85 66 -90 61 -3 -3 1 -29 8 -58 16 -61 14 -85 -8 -93 -26 -10 -40
4 -70 66 -33 70 -54 89 -78 69 -37 -31 -1 -181 44 -181 14 0 24 10 32 31 9 28
12 29 27 15 22 -20 55 -20 71 -1 11 13 11 26 2 66 -7 28 -12 55 -12 60 0 5 25
-11 55 -36 51 -41 85 -56 85 -37 0 4 -7 29 -15 56 -8 27 -15 62 -15 78 0 15
-4 28 -10 28 -5 0 -10 -2 -10 -5z m-216 -90 c36 -37 40 -150 5 -150 -21 0 -49
64 -49 111 0 56 14 68 44 39z"/>
<path d="M2162 1091 c-25 -15 -8 -42 43 -71 40 -23 50 -34 50 -54 -1 -15 3
-22 8 -17 16 16 2 45 -33 68 -70 45 -76 50 -64 63 9 9 17 9 33 1 12 -7 21 -8
21 -2 0 8 -23 21 -38 21 -4 0 -13 -4 -20 -9z"/>
<path d="M2093 1063 c16 -56 29 -125 25 -129 -3 -2 -31 16 -63 41 -32 25 -62
45 -66 45 -9 0 -3 -41 18 -110 11 -39 12 -40 9 -10 -3 19 -8 51 -12 70 l-7 35
45 -37 c47 -38 98 -64 98 -49 0 4 -7 30 -15 57 -8 27 -15 61 -15 77 0 15 -5
27 -11 27 -6 0 -8 -8 -6 -17z"/>
<path d="M440 1020 c-11 -11 -20 -28 -20 -38 0 -30 -12 -34 -36 -11 -29 27
-68 22 -72 -8 -4 -30 -16 -29 -31 3 -6 15 -14 24 -17 22 -2 -3 7 -29 21 -59
13 -30 30 -78 36 -106 7 -29 15 -53 19 -53 4 0 3 21 -3 48 -6 26 -11 72 -11
102 -1 49 1 55 21 58 27 4 47 -25 62 -93 18 -78 33 -91 24 -20 -11 91 -7 127
18 147 50 41 83 16 107 -81 10 -41 24 -77 30 -79 7 -2 12 3 12 12 0 9 -4 16
-8 16 -5 0 -15 25 -21 57 -21 91 -83 131 -131 83z"/>
<path d="M630 999 c0 -28 -6 -47 -17 -56 -17 -13 -16 -14 5 -8 16 5 22 2 22
-9 0 -14 36 -46 52 -46 11 0 38 30 38 42 0 6 -8 4 -18 -5 -10 -10 -26 -17 -35
-17 -22 0 -33 46 -17 74 15 30 10 60 -13 64 -14 3 -17 -4 -17 -39z m30 12 c0
-11 -4 -23 -10 -26 -6 -4 -10 5 -10 19 0 14 5 26 10 26 6 0 10 -9 10 -19z"/>
<path d="M1922 1028 c3 -7 17 -50 33 -96 15 -46 29 -81 32 -78 8 8 -50 185
-61 186 -4 0 -6 -6 -4 -12z"/>
<path d="M2326 1020 c3 -14 10 -29 15 -34 14 -16 10 6 -7 34 l-15 25 7 -25z"/>
<path d="M1730 953 c0 -4 7 -35 16 -71 9 -35 13 -66 10 -69 -3 -3 -22 7 -42
23 -62 50 -94 68 -94 52 1 -23 38 -154 39 -135 1 10 -4 38 -10 63 -6 25 -9 47
-6 51 4 3 23 -9 43 -26 39 -34 81 -58 89 -49 3 2 -2 27 -10 54 -8 27 -15 64
-15 82 0 17 -4 32 -10 32 -5 0 -10 -3 -10 -7z"/>
<path d="M2190 950 c0 -6 7 -10 15 -10 8 0 15 2 15 4 0 2 -7 6 -15 10 -8 3
-15 1 -15 -4z"/>
<path d="M1534 835 c-9 -22 2 -93 16 -110 23 -28 48 -18 61 24 17 57 2 95 -39
99 -22 2 -34 -2 -38 -13z m66 -14 c15 -29 12 -56 -8 -81 l-19 -23 -16 24 c-29
41 -17 99 20 99 7 0 17 -9 23 -19z"/>
<path d="M6182 488 c-7 -7 -12 -20 -12 -29 0 -10 -5 -19 -11 -21 -6 -2 -12
-29 -14 -59 -1 -31 -6 -67 -11 -80 -4 -13 -7 -45 -6 -71 2 -27 -1 -48 -6 -48
-8 0 -92 160 -92 177 0 5 -9 18 -20 28 -11 10 -20 24 -20 31 0 7 -9 18 -21 25
-19 10 -20 9 -14 -11 4 -12 20 -41 35 -64 58 -86 123 -206 116 -213 -4 -4 -62
22 -111 52 -61 36 -105 55 -129 55 -12 -1 1 -9 29 -19 28 -10 70 -30 95 -44
25 -15 60 -34 78 -43 18 -9 46 -30 63 -45 44 -41 52 -37 42 18 -13 84 -4 286
16 337 13 32 10 41 -7 24z"/>
</g>
</svg>
